# xmcd
# 
# Track frame offsets:
#     150
#     3790
#     24902
#     44657
#     47597
#     73895
#     76947
#     95287
#     96950
#     115605
#     135922
#     136935
#     165145
#     171185
#     179017
#     190375
#     195960
#     222720
#     244947
#     248637
#     271115
# 
# Disc length: 3626
# 
# Revision: 6
# Processed by: cddbd v1.5.2PL0 Copyright (c) Steve Scherf et al.
# Submitted via: BonkEnc v1.0beta4
# 
DISCID=140e2815
DTITLE=Corey Harris - Greens from the Garden
DYEAR=1999
DGENRE=Blues
TTITLE0=Introduction to the Greens
TTITLE1=Basehead
TTITLE2=Honeysuckle
TTITLE3=Tapado
TTITLE4=Eh la Bas
TTITLE5=Interlude
TTITLE6=Wild West
TTITLE7=In the Kitchen with Momma
TTITLE8=Sweet Black Angel
TTITLE9=Pas Parlez
TTITLE10=Interlude
TTITLE11=Lynch Blues
TTITLE12=Greens Back in the Day
TTITLE13=Congo Square Rag
TTITLE14=Diddy Wah Diddy
TTITLE15=Ites
TTITLE16=Just a Closer Walk with Thee
TTITLE17=Nola Rag
TTITLE18=Epilogue
TTITLE19=Teabag Blues (bonus track)
TTITLE20=Untitled
EXTD=
EXTT0=
EXTT1=
EXTT2=
EXTT3=
EXTT4=
EXTT5=
EXTT6=
EXTT7=
EXTT8=
EXTT9=
EXTT10=
EXTT11=
EXTT12=
EXTT13=
EXTT14=
EXTT15=
EXTT16=
EXTT17=
EXTT18=
EXTT19=
EXTT20=
PLAYORDER=
